<svg width="482" height="726" viewBox="0 0 482 726" fill="none" xmlns="http://www.w3.org/2000/svg">
<path d="M394.038 282.571C445.27 380.097 474.462 477.393 480.259 555.848C483.157 595.077 480.205 629.57 471.254 657.019C462.304 684.465 447.369 704.836 426.316 715.896C405.263 726.955 380.014 727.694 352.336 719.489C324.655 711.284 294.577 694.141 263.921 669.495C202.61 620.202 139.06 540.955 87.8274 443.429C36.5953 345.903 7.40369 248.607 1.6068 170.152C-1.2917 130.923 1.66058 96.4298 10.6117 68.9809C19.5617 41.5352 34.497 21.1639 55.5501 10.1043C76.6031 -0.955252 101.852 -1.69347 129.53 6.51097C157.211 14.7164 187.288 31.8586 217.945 56.5053C279.256 105.798 342.806 185.045 394.038 282.571Z" stroke="black"/>
</svg>
