<svg width="22" height="22" viewBox="0 0 22 22" fill="none" xmlns="http://www.w3.org/2000/svg">
<path d="M1 8.40741V7.90741C0.723858 7.90741 0.5 8.13126 0.5 8.40741H1ZM21 8.40741H21.5C21.5 8.13126 21.2761 7.90741 21 7.90741V8.40741ZM21 21V21.5C21.2761 21.5 21.5 21.2761 21.5 21H21ZM1 21H0.5C0.5 21.2761 0.723858 21.5 1 21.5V21ZM5.3022 12.8049C5.2763 13.0799 5.47817 13.3237 5.7531 13.3496C6.02802 13.3756 6.27189 13.1737 6.2978 12.8988L5.3022 12.8049ZM10.8207 1.01029L10.874 1.50744L10.8207 1.01029ZM15.7034 12.9099C15.7355 13.1842 15.9838 13.3805 16.2581 13.3485C16.5324 13.3164 16.7287 13.068 16.6966 12.7938L15.7034 12.9099ZM1 8.90741H21V7.90741H1V8.90741ZM20.5 8.40741V21H21.5V8.40741H20.5ZM21 20.5H1V21.5H21V20.5ZM1.5 21V8.40741H0.5V21H1.5ZM6.2978 12.8988C6.47486 11.0194 6.93563 8.18383 7.73562 5.78903C8.13628 4.58963 8.61277 3.5294 9.16242 2.75822C9.71709 1.97999 10.2916 1.56988 10.874 1.50744L10.7674 0.513135C9.77189 0.619861 8.97463 1.29875 8.34809 2.17781C7.71654 3.06392 7.20234 4.22927 6.78714 5.47219C5.9554 7.96204 5.48376 10.8781 5.3022 12.8049L6.2978 12.8988ZM10.874 1.50744C11.4148 1.44946 11.9654 1.73759 12.5337 2.45369C13.0987 3.16582 13.6056 4.21393 14.0437 5.43942C14.917 7.88291 15.4668 10.8874 15.7034 12.9099L16.6966 12.7938C16.455 10.7281 15.8931 7.64269 14.9853 5.10285C14.5328 3.83668 13.9817 2.66978 13.317 1.83211C12.6555 0.998413 11.8045 0.401947 10.7674 0.513135L10.874 1.50744Z" fill="black"/>
</svg>
